<svg width="252" height="175" viewBox="0 0 252 175" fill="none" xmlns="http://www.w3.org/2000/svg">
<path d="M249.992 0.212086L228.029 0.212086C221.459 0.194844 214.95 1.47126 208.88 3.96745C202.81 6.46365 197.299 10.1301 192.666 14.7545L152.141 54.9818C142.789 64.3045 137.524 76.9158 137.491 90.0722L137.491 133.042C96.6654 163.008 42.7274 202.937 35.9773 209.65C30.5385 215.085 26.9259 222.056 25.6347 229.609C24.3434 237.162 25.4368 244.926 28.7648 251.838L3.65205 276.828C1.30864 279.155 -0.00781275 282.31 -0.00781275 285.6C-0.00781276 288.891 1.30864 292.046 3.65205 294.373C5.99617 296.699 9.17505 298.006 12.4896 298.006C15.8042 298.006 18.9831 296.699 21.3272 294.373L46.4149 269.47C53.3793 272.842 61.2332 273.962 68.8723 272.673C76.5115 271.385 83.5516 267.752 89.0028 262.286C95.7654 255.573 135.991 202.044 166.241 161.519L209.516 161.519C216.087 161.536 222.595 160.259 228.665 157.763C234.735 155.267 240.246 151.601 244.879 146.976L285.405 106.749C294.734 97.4161 299.976 84.806 299.992 71.6585L299.992 49.8449C299.992 36.6814 294.724 24.0571 285.347 14.7492C275.971 5.44124 263.253 0.212085 249.992 0.212086ZM71.3277 244.74C68.951 247.005 65.7843 248.269 62.4901 248.269C59.1958 248.269 56.0292 247.005 53.6525 244.74C51.3091 242.413 49.9926 239.258 49.9926 235.968C49.9926 232.678 51.3091 229.522 53.6525 227.195C57.89 223.026 91.1528 198.123 128.003 170.936C100.603 207.503 75.5152 240.546 71.3277 244.74ZM274.992 71.6585C274.976 78.2366 272.343 84.5423 267.667 89.2036L227.142 129.431C224.823 131.743 222.067 133.575 219.031 134.823C215.995 136.071 212.74 136.71 209.454 136.702L184.629 136.702L197.016 119.976L246.329 71.0256C247.523 69.881 248.475 68.5118 249.131 66.998C249.786 65.4841 250.13 63.8559 250.145 62.2084C250.159 60.5608 249.843 58.9269 249.215 57.402C248.586 55.8771 247.658 54.4917 246.484 53.3267C245.31 52.1616 243.915 51.2403 242.379 50.6164C240.842 49.9925 239.196 49.6785 237.537 49.6928C235.877 49.7072 234.237 50.0495 232.712 50.6998C231.186 51.3501 229.807 52.2953 228.654 53.4805L179.354 102.418L162.491 114.727L162.491 90.0722C162.507 83.494 165.14 77.1884 169.816 72.527L210.341 32.2997C212.66 29.9881 215.416 28.1554 218.452 26.9073C221.488 25.6593 224.743 25.0207 228.029 25.0285L249.992 25.0285C256.622 25.0285 262.981 27.643 267.67 32.297C272.358 36.951 274.992 43.2631 274.992 49.8449L274.992 71.6585Z" fill="url(#paint0_linear_2013_9762)"/>
<defs>
<linearGradient id="paint0_linear_2013_9762" x1="149.992" y1="0.211914" x2="149.992" y2="298.006" gradientUnits="userSpaceOnUse">
<stop stop-color="#999999"/>
<stop offset="1" stop-color="#1D1B1A" stop-opacity="0.5"/>
</linearGradient>
</defs>
</svg>
