<svg width="360" height="270" viewBox="0 0 360 270" fill="none" xmlns="http://www.w3.org/2000/svg">
<mask id="mask0_2003_5690" style="mask-type:alpha" maskUnits="userSpaceOnUse" x="0" y="0" width="360" height="270">
<path d="M0 20C0 8.95431 8.95431 0 20 0H340C351.046 0 360 8.95431 360 20V250C360 261.046 351.046 270 340 270H20C8.95432 270 0 261.046 0 250V20Z" fill="#101010"/>
</mask>
<g mask="url(#mask0_2003_5690)">
<path d="M354 -28.7864L332.037 -28.7864C325.467 -28.8037 318.958 -27.5273 312.888 -25.0311C306.818 -22.5349 301.307 -18.8685 296.674 -14.244L256.149 25.9833C246.797 35.306 241.531 47.9173 241.499 61.0737L241.499 104.043C200.673 134.009 146.735 173.939 139.985 180.651C134.546 186.086 130.934 193.058 129.642 200.611C128.351 208.163 129.445 215.927 132.773 222.839L107.66 247.829C105.316 250.156 104 253.312 104 256.602C104 259.892 105.316 263.048 107.66 265.375C110.004 267.701 113.183 269.007 116.497 269.007C119.812 269.007 122.991 267.701 125.335 265.375L150.423 240.471C157.387 243.843 165.241 244.964 172.88 243.675C180.519 242.386 187.559 238.753 193.011 233.287C199.773 226.574 239.999 173.045 270.249 132.52L313.524 132.52C320.094 132.537 326.603 131.261 332.673 128.765C338.743 126.268 344.254 122.602 348.887 117.978L389.412 77.7503C398.742 68.4176 403.984 55.8075 404 42.6599L404 20.8463C404 7.68289 398.732 -4.9414 389.355 -14.2493C379.978 -23.5573 367.261 -28.7864 354 -28.7864ZM175.335 215.742C172.959 218.006 169.792 219.271 166.498 219.271C163.204 219.271 160.037 218.006 157.66 215.742C155.317 213.415 154 210.259 154 206.969C154 203.679 155.317 200.523 157.66 198.197C161.898 194.027 195.161 169.124 232.011 141.938C204.611 178.505 179.523 211.548 175.335 215.742ZM379 42.6599C378.983 49.2381 376.351 55.5438 371.675 60.2051L331.149 100.432C328.831 102.744 326.074 104.577 323.038 105.825C320.003 107.073 316.748 107.711 313.462 107.704L288.636 107.704L301.024 90.9774L350.337 42.0271C351.531 40.8825 352.483 39.5133 353.138 37.9995C353.793 36.4856 354.138 34.8574 354.153 33.2099C354.167 31.5623 353.851 29.9284 353.222 28.4035C352.594 26.8786 351.666 25.4932 350.492 24.3281C349.318 23.1631 347.923 22.2417 346.386 21.6178C344.85 20.9939 343.204 20.68 341.544 20.6943C339.885 20.7086 338.244 21.0509 336.719 21.7012C335.194 22.3515 333.815 23.2968 332.662 24.4819L283.361 73.4198L266.499 85.7288L266.499 61.0737C266.515 54.4955 269.148 48.1898 273.824 43.5285L314.349 3.30113C316.668 0.989562 319.424 -0.843165 322.46 -2.09119C325.496 -3.33921 328.751 -3.9778 332.037 -3.97007L354 -3.97007C360.63 -3.97007 366.989 -1.35549 371.677 3.29848C376.366 7.95246 379 14.2646 379 20.8463L379 42.6599Z" fill="url(#paint0_linear_2003_5690)"/>
</g>
<defs>
<linearGradient id="paint0_linear_2003_5690" x1="254" y1="-28.7866" x2="254" y2="269.007" gradientUnits="userSpaceOnUse">
<stop stop-color="#999999"/>
<stop offset="1" stop-color="#1D1B1A" stop-opacity="0.5"/>
</linearGradient>
</defs>
</svg>
