<svg width="360" height="270" viewBox="0 0 360 270" fill="none" xmlns="http://www.w3.org/2000/svg">
<mask id="mask0_2003_5706" style="mask-type:alpha" maskUnits="userSpaceOnUse" x="0" y="0" width="360" height="270">
<path d="M0 20C0 8.95431 8.95431 0 20 0H340C351.046 0 360 8.95431 360 20V250C360 261.046 351.046 270 340 270H20C8.95432 270 0 261.046 0 250V20Z" fill="#101010"/>
</mask>
<g mask="url(#mask0_2003_5706)">
<path d="M191.024 276.232C183.262 273.44 176.132 269.155 170.041 263.622C163.951 258.089 159.021 251.417 155.534 243.988L103.466 133.103C96.4236 118.103 95.6711 100.939 101.374 85.3869C107.076 69.8346 118.767 57.1668 133.875 50.1693L245.565 -1.5514C260.682 -8.52383 277.967 -9.26143 293.63 -3.60252C309.293 2.05639 322.056 13.6501 329.121 28.6371L381.189 139.523C388.231 154.523 388.984 171.686 383.281 187.239C377.579 202.791 365.888 215.459 350.78 222.456L239.09 274.177C231.608 277.642 223.511 279.607 215.263 279.96C207.015 280.313 198.777 279.046 191.024 276.232ZM285.033 19.8421C280.381 18.1513 275.438 17.3895 270.488 17.6005C265.538 17.8114 260.679 18.991 256.19 21.0713L144.499 72.792C135.435 76.9905 128.42 84.5912 124.999 93.9226C121.577 103.254 122.029 113.552 126.254 122.552L178.322 233.438C180.415 237.897 183.372 241.903 187.025 245.228C190.678 248.552 194.955 251.129 199.611 252.811C204.268 254.493 209.213 255.248 214.164 255.033C219.115 254.817 223.975 253.635 228.465 251.554L340.156 199.833C349.22 195.635 356.235 188.034 359.656 178.703C363.078 169.371 362.626 159.073 358.401 150.073L306.333 39.1879C304.241 34.7295 301.282 30.7255 297.627 27.4056C293.972 24.0857 289.692 21.5153 285.033 19.8421Z" fill="url(#paint0_linear_2003_5706)"/>
</g>
<defs>
<linearGradient id="paint0_linear_2003_5706" x1="292.743" y1="-11.1185" x2="193.312" y2="295.263" gradientUnits="userSpaceOnUse">
<stop stop-color="#999999"/>
<stop offset="1" stop-color="#1D1B1A" stop-opacity="0.5"/>
</linearGradient>
</defs>
</svg>
