<svg width="228" height="193" viewBox="0 0 228 193" fill="none" xmlns="http://www.w3.org/2000/svg">
<path d="M59.6311 263.19C52.5825 258.905 46.4506 253.284 41.587 246.647C36.7234 240.01 33.2236 232.488 31.2883 224.513L2.3923 105.468C-1.51522 89.3645 1.17199 72.396 9.86299 58.2942C18.554 44.1924 32.5371 34.112 48.7375 30.2697L168.501 1.87442C184.706 -1.94143 201.79 0.784594 216.009 9.45492C230.228 18.1252 240.421 32.0324 244.354 48.1279L273.25 167.173C277.158 183.276 274.471 200.245 265.78 214.347C257.089 228.448 243.106 238.529 226.905 242.371L107.141 270.766C99.1183 272.669 90.7918 272.979 82.639 271.679C74.4863 270.379 66.6676 267.494 59.6311 263.19ZM202.908 30.7129C198.686 28.1278 193.995 26.3951 189.102 25.6142C184.21 24.8333 179.213 25.0195 174.399 26.1622L54.6347 54.5574C44.9146 56.8628 36.5247 62.9111 31.3101 71.3722C26.0955 79.8332 24.4831 90.0143 26.8276 99.6765L55.7236 218.721C56.8844 223.509 58.9829 228.024 61.8991 232.011C64.8153 235.997 68.4921 239.375 72.7195 241.953C76.9468 244.531 81.6418 246.257 86.5362 247.034C91.4306 247.81 96.4284 247.622 101.244 246.479L221.008 218.083C230.728 215.778 239.118 209.73 244.333 201.269C249.547 192.808 251.16 182.627 248.815 172.964L219.919 53.9195C218.759 49.1334 216.658 44.6196 213.739 40.6371C210.82 36.6546 207.139 33.282 202.908 30.7129Z" fill="url(#paint0_linear_2013_9747)"/>
<defs>
<linearGradient id="paint0_linear_2013_9747" x1="216.64" y1="1.91324" x2="58.0765" y2="282.294" gradientUnits="userSpaceOnUse">
<stop stop-color="#999999"/>
<stop offset="1" stop-color="#1D1B1A" stop-opacity="0.5"/>
</linearGradient>
</defs>
</svg>
