<svg width="360" height="270" viewBox="0 0 360 270" fill="none" xmlns="http://www.w3.org/2000/svg">
<mask id="mask0_2003_5674" style="mask-type:alpha" maskUnits="userSpaceOnUse" x="0" y="0" width="360" height="270">
<path d="M0 20C0 8.95431 8.95431 0 20 0H340C351.046 0 360 8.95431 360 20V250C360 261.046 351.046 270 340 270H20C8.95432 270 0 261.046 0 250V20Z" fill="#101010"/>
</mask>
<g mask="url(#mask0_2003_5674)">
<path d="M388.649 58.4346C373.394 33.1775 350.936 12.9781 324.115 0.390757C297.294 -12.1966 267.316 -16.6064 237.97 -12.2812C208.625 -7.95603 181.231 4.91 159.251 24.6899C137.272 44.4697 121.696 70.2751 114.491 98.8426C107.287 127.41 108.778 157.457 118.777 185.183C128.775 212.909 146.832 237.07 170.663 254.609C194.495 272.148 223.03 282.279 252.662 283.72C282.294 285.161 311.69 277.847 337.135 262.704C371.221 242.367 395.788 209.439 405.446 171.143C415.103 132.848 409.063 92.3141 388.649 58.4346V58.4346ZM152.794 198.807C140.081 177.759 133.941 153.442 135.151 128.93C136.36 104.419 144.865 80.8139 159.589 61.1004C174.314 41.3869 194.597 26.4503 217.873 18.1795C241.149 9.9086 266.374 8.67495 290.356 14.6345C314.339 20.5941 336.003 33.4792 352.608 51.6605C369.213 69.8417 380.014 92.5025 383.645 116.777C387.276 141.052 383.574 165.85 373.007 188.037C362.44 210.223 345.483 228.8 324.279 241.42C295.837 258.305 261.808 263.302 229.659 255.313C197.511 247.324 169.867 227.002 152.794 198.807Z" fill="url(#paint0_linear_2003_5674)"/>
</g>
<defs>
<linearGradient id="paint0_linear_2003_5674" x1="388.649" y1="58.4346" x2="132.36" y2="213.236" gradientUnits="userSpaceOnUse">
<stop stop-color="#999999"/>
<stop offset="1" stop-color="#1D1B1A" stop-opacity="0.5"/>
</linearGradient>
</defs>
</svg>
