<svg width="217" height="185" viewBox="0 0 217 185" fill="none" xmlns="http://www.w3.org/2000/svg">
<path d="M278.641 72.4339C263.386 47.1767 240.928 26.9773 214.107 14.39C187.287 1.80271 157.308 -2.60717 127.963 1.71804C98.6171 6.04324 71.2227 18.9093 49.2436 38.6891C27.2645 58.469 11.6878 84.2743 4.48332 112.842C-2.72112 141.409 -1.22978 171.456 8.76874 199.182C18.7673 226.908 36.824 251.069 60.6554 268.608C84.4868 286.148 113.023 296.278 142.654 297.719C172.286 299.16 201.683 291.846 227.127 276.703C261.213 256.366 285.78 223.438 295.438 185.143C305.095 146.848 299.055 106.313 278.641 72.4339V72.4339ZM42.7862 212.806C30.0732 191.758 23.9333 167.441 25.1429 142.93C26.3525 118.418 34.8572 94.8131 49.5817 75.0996C64.3061 55.3862 84.5889 40.4496 107.865 32.1787C131.142 23.9079 156.366 22.6742 180.348 28.6338C204.331 34.5934 225.995 47.4785 242.6 65.6597C259.205 83.841 270.007 106.502 273.638 130.777C277.269 155.051 273.567 179.85 262.999 202.036C252.432 224.222 235.475 242.8 214.271 255.419C185.829 272.305 151.801 277.301 119.652 269.312C87.5028 261.323 59.8593 241.002 42.7862 212.806Z" fill="url(#paint0_linear_2013_9775)"/>
<defs>
<linearGradient id="paint0_linear_2013_9775" x1="278.641" y1="72.4339" x2="22.3525" y2="227.235" gradientUnits="userSpaceOnUse">
<stop stop-color="#999999"/>
<stop offset="1" stop-color="#1D1B1A" stop-opacity="0.5"/>
</linearGradient>
</defs>
</svg>
