<svg width="105" height="30" viewBox="0 0 105 30" fill="none" xmlns="http://www.w3.org/2000/svg">
<g clip-path="url(#clip0_2003_3740)">
<path d="M42.4999 30C42.4999 30 37.7986 28.8492 37.4999 26.25C35.7073 28.8492 32.1854 29.728 29.1381 29.728C26.1206 29.728 24.1637 29.0409 23.2674 27.6666C22.6699 26.8002 22.3711 25.8142 22.3711 24.7088C22.3711 23.6034 22.4607 22.5876 22.64 21.6615L25.1496 7.54492H32.768L30.6617 19.4656C30.5721 20.0033 30.5273 20.5411 30.5273 21.0789C30.5273 22.5129 31.334 23.23 32.9473 23.23C34.2917 23.23 35.3672 22.7669 36.1739 21.8407L38.7283 7.54492H46.3468L43.8371 21.6615C43.8073 21.8407 42.4999 30 42.4999 30Z" fill="white"/>
<path d="M9.18695 29.7281C5.7213 29.7281 3.22663 28.9514 1.70294 27.3978C0.56765 26.2625 0 24.7388 0 22.8267C0 22.1993 0.0597525 21.5271 0.179257 20.81L3.22663 3.46692L11.4277 0.0610352L10.128 7.545H22.4968L21.3764 13.8638H9.0077L8.1114 18.9279C7.9919 19.4955 7.93215 20.0034 7.93215 20.4515C7.93215 22.3337 8.8284 23.2749 10.621 23.2749C11.5771 23.2749 12.3687 22.8715 12.9962 22.0648C13.6535 21.2582 14.1016 20.1826 14.3406 18.8382H21.7798C20.525 26.0981 16.3274 29.7281 9.18695 29.7281Z" fill="white"/>
<path d="M99.8968 28.7091C99.8043 29.2196 99.5223 29.75 99.0033 29.75C96.2848 29.75 94.7458 29.1006 93.9393 27.8458C93.4018 27.0093 93.1328 26.1279 93.1328 25.2017C93.1328 24.2457 93.1923 23.4092 93.3118 22.6922L95.2493 12L103.749 7.5L99.8968 28.7091Z" fill="white"/>
<path d="M80.4487 29.6671C76.9832 29.6671 74.4882 28.8903 72.9647 27.3367C71.8292 26.2014 71.2617 24.6777 71.2617 22.7656C71.2617 22.1382 71.3212 21.466 71.4407 20.749L74.4882 3.40588L82.6892 0L81.3897 7.484H93.7582L92.6382 13.8028H80.2692L79.3732 18.8668C79.2537 19.4344 79.1937 19.9423 79.1937 20.3905C79.1937 22.2727 80.0902 23.2138 81.8827 23.2138C82.8387 23.2138 83.6302 22.8105 84.2577 22.0038C84.9152 21.1971 85.3632 20.1216 85.6022 18.7772H93.0412C91.7867 26.0371 87.5892 29.6671 80.4487 29.6671Z" fill="white"/>
<path d="M55.8548 29.6671C52.3893 29.6671 49.8946 28.8903 48.3709 27.3367C47.2356 26.2014 46.668 24.6777 46.668 22.7656C46.668 22.1382 46.7277 21.466 46.8472 20.749L49.8946 3.40588L58.0958 0L56.7958 7.484H79.1648L78.0443 13.8028H55.6758L54.7793 18.8668C54.6598 19.4344 54.6003 19.9423 54.6003 20.3905C54.6003 22.2727 55.4963 23.2138 57.2888 23.2138C58.2448 23.2138 59.0368 22.8105 59.6643 22.0038C60.3213 21.1971 60.7693 20.1216 61.0083 18.7772H68.4478C67.1928 26.0371 62.9953 29.6671 55.8548 29.6671Z" fill="white"/>
<path d="M9.18695 29.6671C5.7213 29.6671 3.22663 28.8903 1.70294 27.3367C0.56765 26.2014 0 24.6777 0 22.7656C0 22.1382 0.0597525 21.466 0.179257 20.749L3.22663 3.40588L11.4277 0L10.128 7.484H22.4968L21.3764 13.8028H9.0077L8.1114 18.8668C7.9919 19.4344 7.93215 19.9423 7.93215 20.3905C7.93215 22.2727 8.8284 23.2138 10.621 23.2138C11.5771 23.2138 12.3687 22.8105 12.9962 22.0038C13.6535 21.1971 14.1016 20.1216 14.3406 18.7772H21.7798C20.525 26.0371 16.3274 29.6671 9.18695 29.6671Z" fill="white"/>
<path d="M95.5 10.75L102.237 7.18335C103.347 6.59565 104.117 5.52055 104.315 4.28019L105 0L96.5 4.5L95.5 10.75Z" fill="white"/>
</g>
<defs>
<clipPath id="clip0_2003_3740">
<rect width="105" height="30" fill="white"/>
</clipPath>
</defs>
</svg>
