<svg width="81" height="59" viewBox="0 0 81 59" fill="none" xmlns="http://www.w3.org/2000/svg">
<path d="M56.8387 58.2076C51.1025 58.2076 46.9734 56.9219 44.4515 54.3504C42.5724 52.4713 41.6328 49.9494 41.6328 46.7846C41.6328 45.7461 41.7317 44.6335 41.9295 43.4467L46.9734 14.7408L60.5475 9.10352L58.3964 21.4908H78.8688L77.0144 31.9495H56.542L55.0585 40.3313C54.8607 41.2709 54.7618 42.1115 54.7618 42.8533C54.7618 45.9686 56.2453 47.5263 59.2124 47.5263C60.7948 47.5263 62.1052 46.8587 63.1437 45.5236C64.2316 44.1884 64.9733 42.4082 65.3689 40.183H77.682C75.6051 52.1994 68.6573 58.2076 56.8387 58.2076Z" fill="white"/>
<path d="M16.1278 58.2076C10.3916 58.2076 6.26249 56.9218 3.74054 54.3504C1.86143 52.4713 0.921875 49.9494 0.921875 46.7846C0.921875 45.7461 1.02077 44.6335 1.21857 43.4467L6.2625 14.7408L19.8366 9.10352L17.6855 21.4908H54.7096L52.8552 31.9495H15.8311L14.3476 40.3313C14.1498 41.2709 14.0509 42.1115 14.0509 42.8533C14.0509 45.9686 15.5344 47.5263 18.5014 47.5263C20.0838 47.5263 21.3943 46.8587 22.4327 45.5236C23.5206 44.1884 24.2624 42.4082 24.658 40.183H36.9711C34.8942 52.1994 27.9464 58.2076 16.1278 58.2076Z" fill="white"/>
<path d="M65.1953 17.7931L75.7382 12.2116C77.9585 11.0361 79.4977 8.8859 79.8946 6.40518L80.9194 0L66.8505 7.44826L65.1953 17.7931Z" fill="white"/>
</svg>
