<svg width="240" height="219" viewBox="0 0 240 219" fill="none" xmlns="http://www.w3.org/2000/svg">
<path d="M146.337 100.951C144.399 99.3719 141.771 98.4848 139.031 98.4848C136.291 98.4848 133.663 99.3719 131.726 100.951L117.115 112.859C115.177 114.438 114.089 116.58 114.089 118.813C114.089 121.046 115.177 123.188 117.115 124.767C119.053 126.346 121.68 127.233 124.42 127.233C127.161 127.233 129.788 126.346 131.726 124.767L146.337 112.859C148.274 111.28 149.363 109.138 149.363 106.905C149.363 104.672 148.274 102.53 146.337 100.951Z" fill="url(#paint0_linear_2013_9783)"/>
<path d="M226.695 94.9982L153.641 35.4589L160.946 29.505C169.043 22.9027 179.602 18.6805 190.964 17.5024C202.326 16.3243 213.846 18.257 223.713 22.9967C233.58 27.7364 241.235 35.0142 245.473 43.686C249.712 52.3578 250.294 61.9318 247.129 70.9027C246.755 71.966 246.643 73.0789 246.797 74.1777C246.952 75.2765 247.371 76.3397 248.029 77.3067C248.688 78.2737 249.574 79.1255 250.636 79.8134C251.699 80.5013 252.918 81.0119 254.222 81.3161C255.527 81.6202 256.892 81.712 258.241 81.586C259.589 81.4601 260.894 81.119 262.08 80.5821C263.266 80.0453 264.312 79.3233 265.156 78.4572C266 77.5912 266.626 76.5982 267 75.5348C271.426 62.9757 270.607 49.5736 264.67 37.4353C258.733 25.2971 248.015 15.1109 234.201 8.47791C220.387 1.84495 204.26 -0.858664 188.355 0.792049C172.45 2.44276 157.669 8.3542 146.335 17.5971L135.932 26.0755C126.586 23.0871 116.374 22.383 106.545 24.0495C96.7153 25.716 87.6948 29.6807 80.5862 35.4589L36.7535 71.1825C27.081 79.0845 21.649 89.7905 21.649 100.952C21.649 112.114 27.081 122.82 36.7535 130.722L109.808 190.261C119.504 198.144 132.64 202.571 146.335 202.571C160.031 202.571 173.167 198.144 182.863 190.261L226.695 154.538C236.368 146.636 241.8 135.93 241.8 124.768C241.8 113.606 236.368 102.9 226.695 94.9982V94.9982ZM168.252 178.353C162.439 183.09 154.556 185.752 146.335 185.752C138.115 185.752 130.232 183.09 124.419 178.353L51.3644 118.814C45.5518 114.077 42.2864 107.652 42.2864 100.952C42.2864 94.2527 45.5518 87.8276 51.3644 83.0904L95.1972 47.3668C101.01 42.6296 108.893 39.9682 117.114 39.9682C125.334 39.9682 133.217 42.6295 139.03 47.3668L212.084 106.906C217.897 111.643 221.162 118.068 221.162 124.768C221.162 131.467 217.897 137.892 212.084 142.63L168.252 178.353Z" fill="url(#paint1_linear_2013_9783)"/>
<defs>
<linearGradient id="paint0_linear_2013_9783" x1="146.337" y1="100.951" x2="123.011" y2="129.572" gradientUnits="userSpaceOnUse">
<stop stop-color="#B3B3B3"/>
<stop offset="1" stop-color="#1D1B1A" stop-opacity="0.21"/>
</linearGradient>
<linearGradient id="paint1_linear_2013_9783" x1="248.629" y1="17.5832" x2="108.66" y2="189.325" gradientUnits="userSpaceOnUse">
<stop stop-color="#999999"/>
<stop offset="1" stop-color="#1D1B1A" stop-opacity="0.5"/>
</linearGradient>
</defs>
</svg>
