<svg width="360" height="270" viewBox="0 0 360 270" fill="none" xmlns="http://www.w3.org/2000/svg">
<mask id="mask0_2003_5657" style="mask-type:alpha" maskUnits="userSpaceOnUse" x="0" y="0" width="360" height="270">
<path d="M0 20C0 8.95431 8.95431 0 20 0H340C351.046 0 360 8.95431 360 20V250C360 261.046 351.046 270 340 270H20C8.95431 270 0 261.046 0 250V20Z" fill="#101010"/>
</mask>
<g mask="url(#mask0_2003_5657)">
<path d="M215.773 147.41C212.912 145.77 209.031 144.849 204.984 144.849C200.938 144.849 197.057 145.77 194.196 147.41L172.619 159.776C169.758 161.416 168.15 163.64 168.15 165.959C168.15 168.278 169.758 170.502 172.619 172.142C175.48 173.782 179.361 174.703 183.408 174.703C187.454 174.703 191.335 173.782 194.196 172.142L215.773 159.776C218.634 158.136 220.242 155.912 220.242 153.593C220.242 151.274 218.634 149.05 215.773 147.41Z" fill="url(#paint0_linear_2003_5657)"/>
<path d="M334.443 141.229L226.559 79.3998L237.347 73.2169C249.304 66.3606 264.897 61.9761 281.676 60.7527C298.455 59.5292 315.468 61.5363 330.039 66.4583C344.611 71.3802 355.915 78.938 362.174 87.9433C368.434 96.9486 369.294 106.891 364.619 116.207C364.068 117.311 363.901 118.467 364.129 119.608C364.358 120.749 364.976 121.853 365.949 122.857C366.921 123.861 368.23 124.746 369.799 125.46C371.368 126.175 373.167 126.705 375.094 127.021C377.021 127.337 379.038 127.432 381.029 127.301C383.02 127.17 384.946 126.816 386.698 126.259C388.45 125.701 389.994 124.951 391.24 124.052C392.487 123.153 393.412 122.121 393.963 121.017C400.501 107.975 399.291 94.0573 390.523 81.4522C381.755 68.8471 365.927 58.2691 345.527 51.3811C325.127 44.493 301.311 41.6854 277.823 43.3996C254.335 45.1138 232.507 51.2526 215.77 60.851L200.407 69.6555C186.605 66.5521 171.524 65.821 157.008 67.5515C142.493 69.2821 129.172 73.3994 118.674 79.3998L53.9431 116.497C39.6591 124.703 31.6373 135.821 31.6373 147.412C31.6373 159.003 39.6591 170.121 53.9431 178.327L161.828 240.156C176.146 248.342 195.545 252.939 215.77 252.939C235.995 252.939 255.394 248.342 269.712 240.156L334.443 203.058C348.727 194.852 356.749 183.735 356.749 172.144C356.749 160.553 348.727 149.435 334.443 141.229ZM248.136 227.79C239.552 232.709 227.91 235.473 215.77 235.473C203.631 235.473 191.989 232.709 183.405 227.79L75.52 165.961C66.9362 161.041 62.1138 154.369 62.1138 147.412C62.1138 140.455 66.9362 133.783 75.5201 128.863L140.251 91.7657C148.835 86.8462 160.477 84.0825 172.616 84.0825C184.756 84.0825 196.398 86.8462 204.982 91.7657L312.866 153.595C321.45 158.514 326.273 165.187 326.273 172.144C326.273 179.101 321.45 185.773 312.866 190.692L248.136 227.79Z" fill="url(#paint1_linear_2003_5657)"/>
</g>
<defs>
<linearGradient id="paint0_linear_2003_5657" x1="215.773" y1="147.41" x2="194.434" y2="184.644" gradientUnits="userSpaceOnUse">
<stop stop-color="#B3B3B3"/>
<stop offset="1" stop-color="#1D1B1A" stop-opacity="0.21"/>
</linearGradient>
<linearGradient id="paint1_linear_2003_5657" x1="366.834" y1="60.8366" x2="238.788" y2="284.262" gradientUnits="userSpaceOnUse">
<stop stop-color="#999999"/>
<stop offset="1" stop-color="#1D1B1A" stop-opacity="0.5"/>
</linearGradient>
</defs>
</svg>
