<svg width="300" height="312" viewBox="0 0 300 312" fill="none" xmlns="http://www.w3.org/2000/svg">
<rect width="173.205" height="173.205" transform="matrix(0.866025 0.5 -0.866025 0.5 150 138.564)" fill="url(#paint0_linear_107_12375)"/>
<rect width="173.205" height="173.205" transform="matrix(0.866025 0.5 -0.866025 0.5 150 103.923)" fill="url(#paint1_linear_107_12375)"/>
<rect width="173.205" height="173.205" transform="matrix(0.866025 0.5 -0.866025 0.5 150 69.2822)" fill="url(#paint2_linear_107_12375)"/>
<rect width="173.205" height="173.205" transform="matrix(0.866025 0.5 -0.866025 0.5 150 34.6411)" fill="url(#paint3_linear_107_12375)"/>
<rect width="173.205" height="173.205" transform="matrix(0.866025 0.5 -0.866025 0.5 150 0)" fill="url(#paint4_linear_107_12375)"/>
<defs>
<linearGradient id="paint0_linear_107_12375" x1="193.588" y1="191.793" x2="37.7036" y2="191.793" gradientUnits="userSpaceOnUse">
<stop stop-color="#FFA800" stop-opacity="0"/>
<stop offset="1" stop-color="#E74F13" stop-opacity="0.83"/>
</linearGradient>
<linearGradient id="paint1_linear_107_12375" x1="191.423" y1="189.628" x2="11.1307" y2="196.829" gradientUnits="userSpaceOnUse">
<stop stop-color="#FFA800" stop-opacity="0"/>
<stop offset="1" stop-color="#E74F13"/>
</linearGradient>
<linearGradient id="paint2_linear_107_12375" x1="187.093" y1="185.298" x2="11.1302" y2="192.492" gradientUnits="userSpaceOnUse">
<stop stop-color="#FFA800" stop-opacity="0"/>
<stop offset="1" stop-color="#E74F13"/>
</linearGradient>
<linearGradient id="paint3_linear_107_12375" x1="191.088" y1="194.293" x2="6.14226" y2="196.76" gradientUnits="userSpaceOnUse">
<stop stop-color="#FFA800" stop-opacity="0"/>
<stop offset="1" stop-color="#E74F13"/>
</linearGradient>
<linearGradient id="paint4_linear_107_12375" x1="174.103" y1="172.308" x2="-0.0180441" y2="174.772" gradientUnits="userSpaceOnUse">
<stop stop-color="#FFA800" stop-opacity="0"/>
<stop offset="0.0001" stop-color="#FFA800" stop-opacity="0"/>
<stop offset="1" stop-color="#E74F13"/>
</linearGradient>
</defs>
</svg>
